# File created by Blade
# Date/Time:  Wed Jan 28 16:58:26 2015
#---------------------------------------------------------
:version 1.10
:name HOM
:units
  mass 1.0
  length 1.000000
  angle deg
:documentation
     Acclaim Skeleton File
:root
   axis xyz
   order TX TY TZ RX RY RZ
   position 0.000000 0.000000 0.000000
   orientation 0 0 0
:bonedata
   begin
      id 1
      name Spine_dum
      direction 0.000000 1.000000 0.000000
      length 9.621153
      axis 0.0 0.0 0.0 xyz
   end
   begin
      id 2
      name LeftUpLeg_dum
      direction 1.000000 0.000000 0.000000
      length 2.700595
      axis 0.0 0.0 0.0 xyz
   end
   begin
      id 3
      name RightUpLeg_dum
      direction -1.000000 0.000000 0.000000
      length 2.700595
      axis 0.0 0.0 0.0 xyz
   end
   begin
      id 4
      name Spine
      direction 0.000000 1.000000 0.000000
      length 0.000000
      axis 0.0 0.0 0.0 xyz
      dof rx ry rz
   end
   begin
      id 5
      name Spine_dum1
      direction 0.000000 1.000000 0.000000
      length 12.771951
      axis 0.0 0.0 0.0 xyz
   end
   begin
      id 6
      name Spine_dum2
      direction 0.000000 1.000000 0.000000
      length 7.400569
      axis 0.0 0.0 0.0 xyz
   end
   begin
      id 7
      name Spine_dum3
      direction 0.000000 1.000000 0.000000
      length 7.400569
      axis 0.0 0.0 0.0 xyz
   end
   begin
      id 8
      name Head
      direction 0.000000 1.000000 0.000000
      length 4.527550
      axis 0.0 0.0 0.0 xyz
      dof rx ry rz
   end
   begin
      id 9
      name LeftShoulder
      direction 1.000000 0.000000 0.000000
      length 8.349299
      axis 0.0 0.0 -90.0 xyz
      dof rx ry rz
   end
   begin
      id 10
      name LeftArm
      direction 1.000000 0.000000 0.000000
      length 11.334839
      axis 0.0 0.0 -90.0 xyz
      dof rx ry rz
   end
   begin
      id 11
      name LeftForeArm
      direction 1.000000 0.000000 0.000000
      length 9.694182
      axis 0.0 0.0 -90.0 xyz
      dof ry rz rx
   end
   begin
      id 12
      name LeftHand
      direction 0.000000 0.000000 0.000000
      length 0.000000
      axis 0.0 0.0 -90.0 xyz
      dof rx ry rz
   end
   begin
      id 13
      name LeftHand_dum1
      direction 0.000000 0.000000 0.000000
      length 0.000000
      axis 0.0 0.0 -90.0 xyz
   end
   begin
      id 14
      name LeftHand_dum2
      direction 1.000000 0.000000 0.000000
      length 3.937000
      axis 0.0 0.0 -90.0 xyz
   end
   begin
      id 15
      name LeftHandThumb1
      direction 0.000000 0.000000 1.000000
      length 3.937000
      axis 0.0 0.0 -90.0 xyz
      dof rx rz ry
   end
   begin
      id 16
      name RightShoulder
      direction -1.000000 0.000000 0.000000
      length 8.349299
      axis 0.0 0.0 90.0 xyz
      dof rx ry rz
   end
   begin
      id 17
      name RightArm
      direction -1.000000 0.000000 0.000000
      length 11.334839
      axis 0.0 0.0 90.0 xyz
      dof rx ry rz
   end
   begin
      id 18
      name RightForeArm
      direction -1.000000 0.000000 0.000000
      length 9.694182
      axis 0.0 0.0 90.0 xyz
      dof ry rz rx
   end
   begin
      id 19
      name RightHand
      direction 0.000000 0.000000 0.000000
      length 0.000000
      axis 0.0 0.0 90.0 xyz
      dof rx ry rz
   end
   begin
      id 20
      name RightHand_dum1
      direction 0.000000 0.000000 0.000000
      length 0.000000
      axis 0.0 0.0 90.0 xyz
   end
   begin
      id 21
      name RightHand_dum2
      direction -1.000000 0.000000 0.000000
      length 3.937000
      axis 0.0 0.0 90.0 xyz
   end
   begin
      id 22
      name RightHandThumb1
      direction 0.000000 0.000000 1.000000
      length 3.937000
      axis 0.0 0.0 90.0 xyz
      dof rx rz ry
   end
   begin
      id 23
      name LeftUpLeg
      direction 0.000000 -1.000000 0.000000
      length 16.757176
      axis 0.0 0.0 0.0 xyz
      dof rx ry rz
   end
   begin
      id 24
      name LeftLeg
      direction 0.000000 -1.000000 0.000000
      length 16.759153
      axis 0.0 0.0 0.0 xyz
      dof rx ry rz
   end
   begin
      id 25
      name LeftFoot
      direction 0.000000 -0.258819 0.965926
      length 5.841289
      axis 15.0 0.0 0.0 xyz
      dof rx ry rz
   end
   begin
      id 26
      name LeftToeBase
      direction 0.000000 0.000000 1.000000
      length 2.952750
      axis 0.0 0.0 0.0 xyz
      dof rx ry rz
   end
   begin
      id 27
      name RightUpLeg
      direction 0.000000 -1.000000 0.000000
      length 16.757176
      axis 0.0 0.0 0.0 xyz
      dof rx ry rz
   end
   begin
      id 28
      name RightLeg
      direction 0.000000 -1.000000 0.000000
      length 16.759153
      axis 0.0 0.0 0.0 xyz
      dof rx ry rz
   end
   begin
      id 29
      name RightFoot
      direction 0.000000 -0.258819 0.965926
      length 5.841289
      axis 15.0 0.0 0.0 xyz
      dof rx ry rz
   end
   begin
      id 30
      name RightToeBase
      direction 0.000000 0.000000 1.000000
      length 2.952750
      axis 0.0 0.0 0.0 xyz
      dof rx ry rz
   end
:hierarchy
   begin
      root Spine_dum LeftUpLeg_dum RightUpLeg_dum
      Spine_dum Spine
      LeftUpLeg_dum LeftUpLeg
      RightUpLeg_dum RightUpLeg
      Spine Spine_dum1 Spine_dum2 Spine_dum3
      Spine_dum1 Head
      Spine_dum2 LeftShoulder
      Spine_dum3 RightShoulder
      LeftShoulder LeftArm
      LeftArm LeftForeArm
      LeftForeArm LeftHand
      LeftHand LeftHand_dum1 LeftHand_dum2
      LeftHand_dum1 LeftHandThumb1
      RightShoulder RightArm
      RightArm RightForeArm
      RightForeArm RightHand
      RightHand RightHand_dum1 RightHand_dum2
      RightHand_dum1 RightHandThumb1
      LeftUpLeg LeftLeg
      LeftLeg LeftFoot
      LeftFoot LeftToeBase
      RightUpLeg RightLeg
      RightLeg RightFoot
      RightFoot RightToeBase
   end

# File created by Blade
# Date/Time:  Wed Jan 28 16:58:32 2015
# Frame Rate: 120.000 fps
#------------------------------------------------------
:FULLY-SPECIFIED
:DEGREES
4158
root 20.701483 35.073403 -17.023086 170.781670 11.425807 -181.310169
Spine 22.581376 7.389985 -2.297293
Head 14.445803 28.261203 12.415336
LeftShoulder -12.853064 10.327985 24.935535
LeftArm 14.428044 -49.881980 -49.369347
LeftForeArm 17.257566 -0.000000 21.705664
LeftHand -1.125522 -0.000000 61.126706
LeftHandThumb1 -26.253704 0.000000 33.147579
RightShoulder -25.631675 -7.617787 -19.277569
RightArm 26.810949 27.661606 49.820483
RightForeArm -11.471104 -0.000000 8.057803
RightHand -19.041947 -0.000000 3.604101
RightHandThumb1 -24.326973 -0.000000 -32.862282
LeftUpLeg 15.443321 14.077934 10.100795
LeftLeg 3.054623 -0.000000 -0.000000
LeftFoot -14.343380 12.589348 -18.469391
LeftToeBase 12.358111 -0.000000 -0.000000
RightUpLeg 8.648918 -9.286423 -12.307555
RightLeg 5.978599 -0.000000 -0.000000
RightFoot -8.570564 -7.047313 14.055541
RightToeBase 4.516172 -0.000000 -0.000000
4159
root 20.713309 35.072655 -17.025371 170.793658 11.395610 -181.264434
Spine 22.561016 7.377649 -2.290171
Head 14.230244 28.134651 12.413553
LeftShoulder -12.808080 10.405264 25.040068
LeftArm 14.389852 -49.686077 -49.227685
LeftForeArm 17.696290 -0.000000 21.486232
LeftHand -1.042459 -0.000000 61.019678
LeftHandThumb1 -26.253704 0.000000 33.147579
RightShoulder -25.619825 -7.593165 -19.293594
RightArm 26.750235 27.717003 49.841238
RightForeArm -11.543806 -0.000000 8.081404
RightHand -19.065419 -0.000000 3.555094
RightHandThumb1 -24.326973 -0.000000 -32.862282
LeftUpLeg 15.429103 14.047929 10.158898
LeftLeg 3.072275 -0.000000 -0.000000
LeftFoot -14.249791 12.609683 -18.296808
LeftToeBase 12.082514 -0.000000 -0.000000
RightUpLeg 8.674336 -9.338064 -12.256418
RightLeg 5.962147 -0.000000 -0.000000
RightFoot -8.568699 -7.031194 14.031505
RightToeBase 4.503827 -0.000000 -0.000000
4160
root 20.726248 35.072462 -17.027453 170.807566 11.398940 -181.200542
Spine 22.553639 7.403529 -2.257986
Head 14.006107 28.017243 12.404070
LeftShoulder -12.798169 10.500738 25.124668
LeftArm 14.443459 -49.495513 -49.162836
LeftForeArm 18.271072 0.000000 21.336213
LeftHand -1.046751 -0.000000 60.940544
LeftHandThumb1 -26.253704 0.000000 33.147579
RightShoulder -25.684969 -7.658530 -19.249124
RightArm 26.896082 27.835591 49.954367
RightForeArm -11.743219 -0.000000 8.008221
RightHand -18.995892 -0.000000 3.546220
RightHandThumb1 -24.326973 -0.000000 -32.862282
LeftUpLeg 15.433020 14.051545 10.247697
LeftLeg 3.076560 -0.000000 -0.000000
LeftFoot -14.356689 12.569179 -18.463592
LeftToeBase 12.384853 -0.000000 -0.000000
RightUpLeg 8.685720 -9.342417 -12.174701
RightLeg 5.956404 -0.000000 -0.000000
RightFoot -8.562368 -7.043980 14.015034
RightToeBase 4.472762 -0.000000 -0.000000
4161
root 20.739271 35.072141 -17.029405 170.823863 11.376838 -181.136547
Spine 22.540524 7.388925 -2.230845
Head 13.824080 27.945986 12.383172
LeftShoulder -12.780771 10.589875 25.214080
LeftArm 14.441464 -49.299735 -49.046364
LeftForeArm 18.843920 -0.000000 21.166414
LeftHand -0.880227 -0.000000 61.036512
LeftHandThumb1 -26.253704 0.000000 33.147579
RightShoulder -25.692385 -7.663908 -19.229702
RightArm 26.909028 27.929263 49.984028
RightForeArm -11.787969 -0.000000 8.017371
RightHand -19.025469 -0.000000 3.635301
RightHandThumb1 -24.326973 -0.000000 -32.862282
LeftUpLeg 15.433872 14.019281 10.322992
LeftLeg 3.065210 -0.000000 -0.000000
LeftFoot -14.374660 12.580816 -18.490999
LeftToeBase 12.417041 -0.000000 -0.000000
RightUpLeg 8.702334 -9.350750 -12.093264
RightLeg 5.946725 -0.000000 -0.000000
RightFoot -8.572944 -7.077744 14.035038
RightToeBase 4.609490 -0.000000 -0.000000
4162
root 20.752305 35.071933 -17.031331 170.843295 11.347662 -181.075992
Spine 22.525921 7.359259 -2.212462
Head 13.623645 27.843069 12.360983
LeftShoulder -12.775420 10.632671 25.313372
LeftArm 14.405237 -49.036853 -48.910853
LeftForeArm 19.366425 0.000000 20.963909
LeftHand -0.797905 -0.000000 61.017790
LeftHandThumb1 -26.253704 0.000000 33.147579
RightShoulder -25.690830 -7.622777 -19.202193
RightArm 26.907864 27.963059 49.935901
RightForeArm -11.705884 -0.000000 7.973269
RightHand -19.040566 -0.000000 3.638480
RightHandThumb1 -24.326973 -0.000000 -32.862282
LeftUpLeg 15.429129 13.960709 10.387774
LeftLeg 3.050899 -0.000000 -0.000000
LeftFoot -14.374516 12.603073 -18.494880
LeftToeBase 12.400541 -0.000000 -0.000000
RightUpLeg 8.718275 -9.364838 -12.014643
RightLeg 5.936577 -0.000000 -0.000000
RightFoot -8.586659 -7.094004 14.033978
RightToeBase 4.483483 -0.000000 -0.000000
